<?xml version="1.0" encoding="utf-8"?>
<!-- Generator: Adobe Illustrator 16.0.0, SVG Export Plug-In . SVG Version: 6.00 Build 0)  -->
<!DOCTYPE svg PUBLIC "-//W3C//DTD SVG 1.1//EN" "http://www.w3.org/Graphics/SVG/1.1/DTD/svg11.dtd">
<svg version="1.1" id="Layer_1" xmlns="http://www.w3.org/2000/svg" xmlns:xlink="http://www.w3.org/1999/xlink" x="0px" y="0px"
	 width="16px" height="16px" viewBox="0 0 16 16" enable-background="new 0 0 16 16" xml:space="preserve">
<g>
	<g>
		<defs>
			<rect id="SVGID_1_" width="16" height="16"/>
		</defs>
		<clipPath id="SVGID_2_">
			<use xlink:href="#SVGID_1_"  overflow="visible"/>
		</clipPath>
		<path clip-path="url(#SVGID_2_)" fill="#3E77D5" d="M8,14.398c-3.529,0-6.4-2.871-6.4-6.399C1.6,4.47,4.471,1.6,8,1.6
			c3.529,0,6.4,2.871,6.4,6.4C14.4,11.529,11.529,14.398,8,14.398 M8,2.667C5.059,2.667,2.667,5.06,2.667,8
			c0,2.941,2.392,5.334,5.333,5.334c2.941,0,5.333-2.395,5.333-5.334C13.333,5.06,10.941,2.667,8,2.667"/>
	</g>
	<g>
		<defs>
			<rect id="SVGID_3_" width="16" height="16"/>
		</defs>
		<clipPath id="SVGID_4_">
			<use xlink:href="#SVGID_3_"  overflow="visible"/>
		</clipPath>
		<path clip-path="url(#SVGID_4_)" fill="#3E77D5" d="M8,4.267c-0.294,0-0.533-0.238-0.533-0.533v-3.2C7.467,0.239,7.706,0,8,0
			s0.533,0.239,0.533,0.534v3.2C8.533,4.028,8.294,4.267,8,4.267"/>
	</g>
	<g>
		<defs>
			<rect id="SVGID_5_" width="16" height="16"/>
		</defs>
		<clipPath id="SVGID_6_">
			<use xlink:href="#SVGID_5_"  overflow="visible"/>
		</clipPath>
		<path clip-path="url(#SVGID_6_)" fill="#3E77D5" d="M8,16c-0.294,0-0.533-0.238-0.533-0.533v-3.199
			c0-0.295,0.239-0.533,0.533-0.533s0.533,0.238,0.533,0.533v3.199C8.533,15.762,8.294,16,8,16"/>
	</g>
	<g>
		<defs>
			<rect id="SVGID_7_" width="16" height="16"/>
		</defs>
		<clipPath id="SVGID_8_">
			<use xlink:href="#SVGID_7_"  overflow="visible"/>
		</clipPath>
		<path clip-path="url(#SVGID_8_)" fill="#3E77D5" d="M15.467,8.533h-3.199c-0.295,0-0.533-0.238-0.533-0.533
			s0.238-0.534,0.533-0.534h3.199C15.762,7.466,16,7.705,16,8S15.762,8.533,15.467,8.533"/>
	</g>
	<g>
		<defs>
			<rect id="SVGID_9_" width="16" height="16"/>
		</defs>
		<clipPath id="SVGID_10_">
			<use xlink:href="#SVGID_9_"  overflow="visible"/>
		</clipPath>
		<path clip-path="url(#SVGID_10_)" fill="#3E77D5" d="M3.733,8.533h-3.2C0.239,8.533,0,8.295,0,8s0.239-0.534,0.533-0.534h3.2
			c0.294,0,0.533,0.239,0.533,0.534S4.027,8.533,3.733,8.533"/>
	</g>
	<g>
		<defs>
			<rect id="SVGID_11_" width="16" height="16"/>
		</defs>
		<clipPath id="SVGID_12_">
			<use xlink:href="#SVGID_11_"  overflow="visible"/>
		</clipPath>
		<path clip-path="url(#SVGID_12_)" fill="#3E77D5" d="M8,10.667c-1.47,0-2.667-1.196-2.667-2.667C5.333,6.53,6.53,5.333,8,5.333
			c1.471,0,2.667,1.197,2.667,2.667C10.667,9.471,9.471,10.667,8,10.667 M8,6.4C7.118,6.4,6.4,7.118,6.4,8S7.118,9.6,8,9.6
			S9.6,8.882,9.6,8S8.882,6.4,8,6.4"/>
	</g>
</g>
</svg>
