<?xml version="1.0" encoding="utf-8"?>
<!-- Generator: Adobe Illustrator 16.0.0, SVG Export Plug-In . SVG Version: 6.00 Build 0)  -->
<!DOCTYPE svg PUBLIC "-//W3C//DTD SVG 1.1//EN" "http://www.w3.org/Graphics/SVG/1.1/DTD/svg11.dtd">
<svg version="1.1" id="Layer_1" xmlns="http://www.w3.org/2000/svg" xmlns:xlink="http://www.w3.org/1999/xlink" x="0px" y="0px"
	 width="16px" height="16px" viewBox="0 0 16 16" enable-background="new 0 0 16 16" xml:space="preserve">
<g>
	<defs>
		<rect id="SVGID_1_" width="16" height="16"/>
	</defs>
	<clipPath id="SVGID_2_">
		<use xlink:href="#SVGID_1_"  overflow="visible"/>
	</clipPath>
	<path clip-path="url(#SVGID_2_)" fill="#D41F39" d="M8,14.399c-3.529,0-6.4-2.871-6.4-6.4S4.471,1.6,8,1.6
		c3.529,0,6.4,2.871,6.4,6.4S11.529,14.399,8,14.399 M8,2.667C5.059,2.667,2.667,5.06,2.667,8c0,2.941,2.392,5.334,5.333,5.334
		c2.941,0,5.333-2.394,5.333-5.334C13.333,5.06,10.941,2.667,8,2.667"/>
	<path clip-path="url(#SVGID_2_)" fill="#D41F39" d="M8,4.267c-0.294,0-0.533-0.238-0.533-0.533v-3.2C7.467,0.239,7.706,0,8,0
		s0.533,0.239,0.533,0.534v3.2C8.533,4.028,8.294,4.267,8,4.267"/>
	<path clip-path="url(#SVGID_2_)" fill="#D41F39" d="M8,16c-0.294,0-0.533-0.238-0.533-0.533v-3.2c0-0.295,0.239-0.533,0.533-0.533
		s0.533,0.238,0.533,0.533v3.2C8.533,15.761,8.294,16,8,16"/>
	<path clip-path="url(#SVGID_2_)" fill="#D41F39" d="M15.467,8.533h-3.2c-0.294,0-0.533-0.238-0.533-0.533s0.239-0.534,0.533-0.534
		h3.2C15.761,7.466,16,7.705,16,8S15.761,8.533,15.467,8.533"/>
	<path clip-path="url(#SVGID_2_)" fill="#D41F39" d="M3.733,8.533h-3.2C0.239,8.533,0,8.295,0,8s0.239-0.534,0.533-0.534h3.2
		c0.294,0,0.533,0.239,0.533,0.534S4.027,8.533,3.733,8.533"/>
	<path clip-path="url(#SVGID_2_)" fill="#D41F39" d="M8,10.667C6.53,10.667,5.333,9.47,5.333,8C5.333,6.53,6.53,5.333,8,5.333
		c1.47,0,2.667,1.197,2.667,2.667C10.667,9.47,9.47,10.667,8,10.667 M8,6.4C7.118,6.4,6.4,7.118,6.4,8S7.118,9.6,8,9.6
		S9.6,8.882,9.6,8S8.882,6.4,8,6.4"/>
</g>
</svg>
