<?xml version="1.0" encoding="utf-8"?>
<!-- Generator: Adobe Illustrator 16.0.0, SVG Export Plug-In . SVG Version: 6.00 Build 0)  -->
<!DOCTYPE svg PUBLIC "-//W3C//DTD SVG 1.1//EN" "http://www.w3.org/Graphics/SVG/1.1/DTD/svg11.dtd">
<svg version="1.1" id="Layer_1" xmlns="http://www.w3.org/2000/svg" xmlns:xlink="http://www.w3.org/1999/xlink" x="0px" y="0px"
	 width="10px" height="10px" viewBox="0 0 10 10" enable-background="new 0 0 10 10" xml:space="preserve">
<g>
	<defs>
		<rect id="SVGID_1_" width="10" height="10"/>
	</defs>
	<clipPath id="SVGID_2_">
		<use xlink:href="#SVGID_1_"  overflow="visible"/>
	</clipPath>
	<path clip-path="url(#SVGID_2_)" fill="#D41F39" d="M6.438,5.159c-0.091-0.091-0.091-0.227,0-0.319l3.426-3.425
		C9.955,1.324,10,1.186,10,1.097c0-0.092-0.045-0.23-0.136-0.322L9.224,0.136C9.132,0.044,8.997,0,8.905,0
		c-0.139,0-0.23,0.044-0.321,0.136L5.159,3.56c-0.091,0.092-0.227,0.092-0.319,0L1.416,0.136C1.324,0.044,1.186,0,1.097,0
		C1.006,0,0.868,0.044,0.776,0.136l-0.64,0.639C0.045,0.867,0,1.005,0,1.097c0,0.089,0.045,0.227,0.136,0.318L3.561,4.84
		c0.091,0.092,0.091,0.228,0,0.319L0.136,8.584C0.045,8.675,0,8.813,0,8.905c0,0.091,0.045,0.227,0.136,0.318l0.64,0.64
		C0.868,9.955,1.006,10,1.097,10c0.089,0,0.227-0.045,0.319-0.137L4.84,6.439c0.092-0.092,0.229-0.092,0.319,0l3.425,3.424
		C8.675,9.955,8.813,10,8.905,10c0.092,0,0.227-0.045,0.318-0.137l0.641-0.64C9.955,9.132,10,8.996,10,8.905
		c0-0.092-0.045-0.23-0.136-0.321L6.438,5.159z"/>
</g>
</svg>
