<?xml version="1.0" encoding="utf-8"?>
<!-- Generator: Adobe Illustrator 16.0.0, SVG Export Plug-In . SVG Version: 6.00 Build 0)  -->
<!DOCTYPE svg PUBLIC "-//W3C//DTD SVG 1.1//EN" "http://www.w3.org/Graphics/SVG/1.1/DTD/svg11.dtd">
<svg version="1.1" id="Layer_1" xmlns="http://www.w3.org/2000/svg" xmlns:xlink="http://www.w3.org/1999/xlink" x="0px" y="0px"
	 width="40px" height="40px" viewBox="0 0 40 40" enable-background="new 0 0 40 40" xml:space="preserve">
<g>
	<defs>
		<rect id="SVGID_1_" width="40" height="40"/>
	</defs>
	<clipPath id="SVGID_2_">
		<use xlink:href="#SVGID_1_"  overflow="visible"/>
	</clipPath>
	<path clip-path="url(#SVGID_2_)" fill="#52BBAB" d="M20,0C8.954,0,0,8.955,0,20c0,11.047,8.954,20,20,20s20-8.953,20-20
		C40,8.955,31.046,0,20,0 M25.013,13.769h-2.578c-0.693,0-1.181,0.587-1.181,1.32v1.149h3.681l-0.596,3.729h-3.086v9.995h-3.768
		v-9.995h-2.5v-3.729h2.5v-1.902h0.008c0.066-2.167,0.818-4.231,4.49-4.361V9.962h3.03V13.769z"/>
</g>
</svg>
