<svg width="198" height="62" viewBox="0 0 198 62" fill="none" xmlns="http://www.w3.org/2000/svg">
<path d="M42.8 17.1H0V45.1L19.9 19.6V45.1L42.8 17.1ZM88.7 0L39.7 61.7L40.1 62L89.1 0.3L88.7 0ZM127.8 26.1L124.8 15.1H123.8L120.8 26.1L118.1 15.1H117.1L120.3 27.7H121.3L124.3 16.7L127.3 27.7H128.3L131.5 15.1H130.5L127.8 26.1ZM139.1 24.7H145.1L146.2 27.8H147.2L142.5 15.2H141.6L137 27.7H138L139.1 24.7ZM142.1 16.4L144.8 23.8H139.4L142.1 16.4ZM163.5 18.5C163.5 16.3 161.9 15.1 159.8 15.1H155V27.7H156V21.9H159.5L162.6 27.7H163.7L160.6 21.9C162.4 21.6 163.5 20.4 163.5 18.5ZM156 21V15.9H159.8C161.5 15.9 162.6 16.7 162.6 18.5C162.6 20.3 161.4 21.1 159.8 21.1L156 21ZM176.6 15.1H172.3V27.7H176.6C177.9 27.7 179 27.3 179.8 26.5C181.1 25.2 181 22.9 181 21.2C181 19.5 181.1 17.5 179.8 16.2C179 15.5 177.9 15.1 176.6 15.1ZM179.1 25.9C178.4 26.7 177.4 26.9 176.3 26.9H173.2V15.9H176.3C177.3 15.9 178.3 16.1 179.1 16.9C180.1 17.9 180.1 19.8 180.1 21.2C180.1 22.6 180.1 24.9 179.1 25.9ZM195.7 24.7L196.8 27.8H197.8L193.1 15.2H192.2L187.5 27.8H188.5L189.6 24.7H195.7ZM192.7 16.4L195.4 23.8H190L192.7 16.4ZM92.8 49.7L85.4 38.7H84.4V51.3H85.4V40.3L92.8 51.3H93.8V38.7H92.8V49.7ZM102.9 51.3H110.7V50.4H103.9V45.3H109.7V44.4H103.9V39.4H110.7V38.5H102.9V51.3ZM117.7 39.6H121.5V51.4H122.5V39.6H126.3V38.7H117.7V39.6ZM143.7 49.7L140.7 38.7H139.7L136.7 49.7L134 38.7H133L136.2 51.3H137.2L140.2 40.3L143.2 51.3H144.2L147.4 38.7H146.4L143.7 49.7ZM158.8 38.6C157.6 38.6 156.4 39.1 155.6 39.9C154.4 41.1 154.4 42.2 154.4 45C154.4 47.8 154.4 49 155.6 50.1C156.4 50.9 157.6 51.4 158.8 51.4C160 51.4 161.2 50.9 162 50.1C163.2 48.9 163.2 47.8 163.2 45C163.2 42.1 163.2 41 162 39.9C161.1 39.1 160 38.6 158.8 38.6ZM161.2 49.6C160.6 50.2 159.7 50.6 158.8 50.6C157.9 50.6 157 50.3 156.4 49.6C155.5 48.7 155.4 47.7 155.4 45C155.4 42.3 155.5 41.3 156.4 40.4C157 39.8 157.9 39.4 158.8 39.4C159.7 39.4 160.6 39.7 161.2 40.4C162.1 41.3 162.2 42.3 162.2 45C162.2 47.7 162.1 48.7 161.2 49.6ZM180.3 42.1C180.3 39.9 178.7 38.7 176.6 38.7H171.7V51.3H172.7V45.5H176.2L179.3 51.3H180.4L177.3 45.5C179.2 45.2 180.3 44 180.3 42.1ZM172.7 44.7V39.6H176.5C178.2 39.6 179.3 40.4 179.3 42.2C179.3 44 178.1 44.8 176.5 44.8L172.7 44.7ZM193.4 43.5L197.4 38.7H196.2L189.7 46.6V38.7H188.7V51.3H189.7V47.9L192.8 44.2L196.9 51.3H198.1L193.4 43.5Z" fill="white"/>
</svg>
