<?xml version="1.0" encoding="utf-8"?>
<!-- Generator: Adobe Illustrator 16.0.0, SVG Export Plug-In . SVG Version: 6.00 Build 0)  -->
<!DOCTYPE svg PUBLIC "-//W3C//DTD SVG 1.1//EN" "http://www.w3.org/Graphics/SVG/1.1/DTD/svg11.dtd">
<svg version="1.1" id="Layer_1" xmlns="http://www.w3.org/2000/svg" xmlns:xlink="http://www.w3.org/1999/xlink" x="0px" y="0px"
	 width="597.585px" height="595.281px" viewBox="0 0 597.585 595.281" enable-background="new 0 0 597.585 595.281"
	 xml:space="preserve">
<title>footer-spotify</title>
<g id="Layer_2">
	<g id="Layer_1-2">
		<path fill="#FFFFFF" d="M299.945,0C135.563,0,2.305,133.258,2.305,297.641c0,164.382,133.258,297.641,297.64,297.641
			s297.641-133.259,297.641-297.641C597.584,133.258,464.325,0,299.945,0z M406.201,404.048
			c-3.408,7.271-10.72,11.914-18.752,11.904c-2.982-0.005-5.931-0.665-8.631-1.935c-74.41-34.377-185.43-18.007-186.472-17.858
			c-11.26,1.687-21.754-6.077-23.438-17.337c-1.686-11.261,6.077-21.755,17.338-23.438c5.06-0.744,124.563-18.156,209.983,21.28
			C406.511,381.505,410.963,393.73,406.201,404.048z M430.161,329.636c-3.38,7.298-10.709,11.951-18.752,11.906
			c-2.982-0.007-5.931-0.666-8.631-1.937c-85.721-39.586-214.003-20.983-215.343-20.686c-11.283,1.158-21.369-7.049-22.528-18.332
			c-1.064-10.367,5.806-19.891,15.98-22.147c5.804-0.894,141.677-20.687,238.11,24.108c10.578,4.317,15.653,16.393,11.336,26.97
			c-0.057,0.139-0.113,0.276-0.174,0.414L430.161,329.636L430.161,329.636z M446.383,252.994
			c-3.38,7.298-10.708,11.951-18.751,11.906c-2.984-0.006-5.932-0.666-8.632-1.937c-95.841-44.646-239.005-23.513-240.492-23.216
			c-11.261,1.687-21.755-6.077-23.439-17.337c-1.685-11.261,6.077-21.755,17.337-23.438c6.399-0.894,156.856-22.918,264.007,26.639
			c10.297,4.758,14.787,16.961,10.029,27.258C446.423,252.911,446.404,252.952,446.383,252.994z"/>
	</g>
</g>
</svg>
