<?xml version="1.0" encoding="utf-8"?>
<!-- Generator: Adobe Illustrator 16.0.0, SVG Export Plug-In . SVG Version: 6.00 Build 0)  -->
<!DOCTYPE svg PUBLIC "-//W3C//DTD SVG 1.1//EN" "http://www.w3.org/Graphics/SVG/1.1/DTD/svg11.dtd">
<svg version="1.1" id="Layer_1" xmlns="http://www.w3.org/2000/svg" xmlns:xlink="http://www.w3.org/1999/xlink" x="0px" y="0px"
	 width="595.279px" height="595.281px" viewBox="0 0 595.279 595.281" enable-background="new 0 0 595.279 595.281"
	 xml:space="preserve">
<title>footer-apple</title>
<g id="Layer_2">
	<g id="Capa_1">
		<path d="M297.64,0C133.258,0,0,133.258,0,297.641c0,164.382,133.258,297.641,297.64,297.641s297.641-133.259,297.641-297.641
			C595.28,133.258,462.021,0,297.64,0z M339.905,365.651l-7.439,59.528c-1.436,12.144-11.732,21.29-23.96,21.281h-21.729
			c-12.177,0.018-22.455-9.05-23.958-21.135l-7.44-59.525c-3.041-23.311,13.39-44.67,36.698-47.711
			c1.846-0.24,3.703-0.36,5.564-0.357c-19.973,0-36.163-16.191-36.163-36.164c0-19.972,16.19-36.163,36.163-36.163
			s36.163,16.191,36.163,36.163c-0.081,19.938-16.225,36.082-36.163,36.164c23.507-0.021,42.581,19.015,42.604,42.521
			C340.245,362.057,340.132,363.861,339.905,365.651z M297.64,221.146c-37.726,0.02-68.293,30.618-68.271,68.344
			c0.007,13.074,3.766,25.871,10.828,36.873c-4.933,8.369-7.979,17.714-8.931,27.383c-35.592-36.696-34.693-95.302,2.005-130.894
			c36.697-35.594,95.301-34.694,130.894,2.004c34.822,35.906,34.822,92.982,0,128.89c-0.95-9.669-3.997-19.014-8.931-27.383
			c20.385-31.745,11.175-74.004-20.57-94.388C323.617,224.885,310.765,221.125,297.64,221.146z M357.168,416.696l3.721-29.764
			c53.907-35.301,68.991-107.619,33.69-161.527c-35.304-53.908-107.619-68.992-161.527-33.69
			c-53.907,35.303-68.99,107.619-33.689,161.527c8.794,13.43,20.264,24.897,33.689,33.69l5.062,29.764
			c-70.461-32.876-100.929-116.647-68.052-187.107c32.876-70.46,116.646-100.928,187.106-68.051
			c70.46,32.876,100.928,116.646,68.051,187.107C411.233,378.619,387.141,402.713,357.168,416.696z"/>
	</g>
</g>
</svg>
