<?xml version="1.0" encoding="utf-8"?>
<!-- Generator: Adobe Illustrator 16.0.0, SVG Export Plug-In . SVG Version: 6.00 Build 0)  -->
<!DOCTYPE svg PUBLIC "-//W3C//DTD SVG 1.1//EN" "http://www.w3.org/Graphics/SVG/1.1/DTD/svg11.dtd">
<svg version="1.1" id="Layer_1" xmlns="http://www.w3.org/2000/svg" xmlns:xlink="http://www.w3.org/1999/xlink" x="0px" y="0px"
	 width="595.28px" height="595.281px" viewBox="0 0 595.28 595.281" enable-background="new 0 0 595.28 595.281"
	 xml:space="preserve">
<title>footer-instagram</title>
<g id="Layer_2">
	<g id="Layer_1-2">
		<path fill="#FFFFFF" d="M354.638,297.64c0,31.479-25.519,56.998-56.998,56.998c-31.479,0-56.998-25.52-56.998-56.998
			c0-31.479,25.521-56.998,56.998-56.998l0,0C329.119,240.642,354.638,266.161,354.638,297.64z"/>
		<path fill="#FFFFFF" d="M431.578,196.889c-5.733-15.349-17.84-27.454-33.188-33.188c-10.146-3.786-20.869-5.8-31.698-5.952
			c-18.008-0.894-23.364-1.042-69.053-1.042c-45.688,0-51.045,0-69.053,1.042c-10.828,0.155-21.551,2.169-31.698,5.952
			c-15.347,5.733-27.454,17.84-33.187,33.188c-3.783,10.146-5.797,20.868-5.953,31.697c-0.893,18.008-1.042,23.365-1.042,69.054
			c0,45.688,0,51.045,1.042,69.053c0.153,10.829,2.167,21.552,5.953,31.698c5.731,15.348,17.84,27.454,33.187,33.188
			c10.147,3.785,20.869,5.8,31.698,5.952c18.008,0.895,23.365,1.042,69.053,1.042c45.688,0,51.045,0,69.053-1.042
			c10.829-0.152,21.553-2.167,31.698-5.952c15.349-5.732,27.454-17.84,33.188-33.188c3.783-10.147,5.796-20.869,5.952-31.698
			c0.894-18.008,1.042-23.365,1.042-69.053c0-45.688,0-51.046-1.042-69.054C437.377,217.759,435.364,207.036,431.578,196.889
			L431.578,196.889z M297.64,385.444c-48.491,0-87.804-39.311-87.804-87.804s39.313-87.805,87.804-87.805
			c48.493,0,87.804,39.312,87.804,87.805l0,0C385.443,346.135,346.133,385.444,297.64,385.444z M388.866,226.951
			c-11.343,0-20.537-9.195-20.537-20.537c0-11.343,9.193-20.537,20.537-20.537c11.343,0,20.536,9.194,20.536,20.537l0,0
			C409.403,217.756,400.209,226.951,388.866,226.951z"/>
		<path fill="#FFFFFF" d="M297.64,0C133.258,0,0,133.258,0,297.641c0,164.382,133.258,297.641,297.64,297.641
			s297.641-133.259,297.641-297.641C595.28,133.258,462.021,0,297.64,0z M467.592,368.032c-0.262,14.188-2.929,28.228-7.887,41.521
			c-8.875,22.971-27.033,41.128-50.004,50.003c-13.295,4.959-27.334,7.625-41.521,7.888c-18.156,0.894-24.109,1.042-70.393,1.042
			c-46.282,0-52.235,0-70.54-1.042c-14.188-0.263-28.228-2.929-41.521-7.888c-22.971-8.875-41.129-27.032-50.004-50.003
			c-4.961-13.294-7.628-27.334-7.888-41.521c-0.893-18.154-1.042-24.107-1.042-70.541c0-46.432,0-52.235,1.042-70.392
			c0.263-14.188,2.93-28.228,7.888-41.521c8.892-22.961,27.043-41.113,50.004-50.004c13.294-4.958,27.334-7.625,41.521-7.888
			c18.156-0.894,24.107-1.041,70.392-1.041s52.235,0,70.393,1.041c14.187,0.266,28.226,2.933,41.521,7.888
			c22.971,8.875,41.128,27.033,50.003,50.004c4.961,13.294,7.628,27.334,7.888,41.521c0.894,18.155,1.042,24.108,1.042,70.392
			s0,52.236-1.042,70.394L467.592,368.032z"/>
	</g>
</g>
</svg>
