<?xml version="1.0" encoding="utf-8"?>
<!-- Generator: Adobe Illustrator 16.0.0, SVG Export Plug-In . SVG Version: 6.00 Build 0)  -->
<!DOCTYPE svg PUBLIC "-//W3C//DTD SVG 1.1//EN" "http://www.w3.org/Graphics/SVG/1.1/DTD/svg11.dtd">
<svg version="1.1" id="Layer_1" xmlns="http://www.w3.org/2000/svg" xmlns:xlink="http://www.w3.org/1999/xlink" x="0px" y="0px"
	 width="596.28px" height="595.281px" viewBox="0 0 596.28 595.281" enable-background="new 0 0 596.28 595.281"
	 xml:space="preserve">
<title>footer-facebook</title>
<g id="Layer_2">
	<g id="Layer_1-2">
		<path fill="#FFFFFF" d="M298.64,0C134.258,0,1,133.258,1,297.641c0,164.382,133.258,297.641,297.64,297.641
			s297.641-133.259,297.641-297.641C596.28,133.258,463.021,0,298.64,0z M373.05,204.926h-38.098
			c-10.104,0.384-17.981,8.884-17.599,18.985c0.009,0.22,0.021,0.439,0.036,0.658v17.114h54.767l-8.93,55.957h-45.984v148.82
			h-55.956V297.64H224.23v-55.957h37.205v-28.275l0,0c1.042-32.294,12.202-62.951,66.819-64.886h44.646L373.05,204.926z"/>
	</g>
</g>
</svg>
