<?xml version="1.0" encoding="utf-8"?>
<!-- Generator: Adobe Illustrator 16.0.0, SVG Export Plug-In . SVG Version: 6.00 Build 0)  -->
<!DOCTYPE svg PUBLIC "-//W3C//DTD SVG 1.1//EN" "http://www.w3.org/Graphics/SVG/1.1/DTD/svg11.dtd">
<svg version="1.1" id="Layer_1" xmlns="http://www.w3.org/2000/svg" xmlns:xlink="http://www.w3.org/1999/xlink" x="0px" y="0px"
	 width="596.279px" height="595.281px" viewBox="0 0 596.279 595.281" enable-background="new 0 0 596.279 595.281"
	 xml:space="preserve">
<title>footer-youtube</title>
<g id="Layer_2">
	<g id="Layer_1-2">
		<path d="M298.64,0C134.258,0,1,133.258,1,297.641c0,164.382,133.258,297.641,297.64,297.641s297.641-133.259,297.641-297.641
			C596.28,133.258,463.021,0,298.64,0z M469.782,384.552c-4.028,15.419-15.825,27.608-31.104,32.145
			c-37.205,9.974-243.022,9.974-279.781,0c-15.224-4.268-27.054-16.268-31.104-31.55c-10.668-57.8-10.668-117.063,0-174.863
			c4.163-15.248,15.938-27.247,31.104-31.699c37.204-10.269,243.617-9.819,279.781,0c15.224,4.271,27.053,16.271,31.104,31.552
			v-2.978C480.003,265.847,480.003,325.862,469.782,384.552z"/>
		<polygon points="263.073,351.364 356.233,297.194 263.073,242.875 		"/>
	</g>
</g>
</svg>
