<?xml version="1.0" encoding="utf-8"?>
<!-- Generator: Adobe Illustrator 16.0.0, SVG Export Plug-In . SVG Version: 6.00 Build 0)  -->
<!DOCTYPE svg PUBLIC "-//W3C//DTD SVG 1.1//EN" "http://www.w3.org/Graphics/SVG/1.1/DTD/svg11.dtd">
<svg version="1.1" id="Layer_1" xmlns="http://www.w3.org/2000/svg" xmlns:xlink="http://www.w3.org/1999/xlink" x="0px" y="0px"
	 width="597.586px" height="595.281px" viewBox="0 0 597.586 595.281" enable-background="new 0 0 597.586 595.281"
	 xml:space="preserve">
<title>footer-tiktok</title>
<g id="Layer_2">
	<g id="Layer_1-2">
		<path d="M299.945,0C135.563,0,2.305,133.258,2.305,297.641c0,164.382,133.258,297.641,297.64,297.641
			s297.642-133.259,297.642-297.641C597.585,133.258,464.325,0,299.945,0z M432.842,272.341c0,4.852-3.934,8.78-8.78,8.78l0,0
			c-19.777,0.034-39.255-4.823-56.701-14.138v84.828c0,53.835-43.642,97.477-97.478,97.477
			c-53.836-0.001-97.479-43.643-97.479-97.478c0.001-53.836,43.644-97.479,97.479-97.479c0.1,0,0.197,0,0.298,0.001
			c4.85,0,8.779,3.933,8.779,8.78l0,0v46.729c0,4.85-3.932,8.778-8.779,8.778l0,0c-18.411,0-33.336,14.927-33.336,33.337
			s14.925,33.337,33.336,33.337c18.409,0,33.335-14.927,33.335-33.337l0,0v-191.68c0-4.849,3.932-8.78,8.78-8.78l0,0h47.177
			c4.849,0,8.779,3.934,8.779,8.78l0,0c0,31.314,25.387,56.7,56.699,56.7c4.852,0,8.78,3.932,8.78,8.78l0,0L432.842,272.341z"/>
	</g>
</g>
</svg>
