<?xml version="1.0" encoding="utf-8"?>
<!-- Generator: Adobe Illustrator 16.0.0, SVG Export Plug-In . SVG Version: 6.00 Build 0)  -->
<!DOCTYPE svg PUBLIC "-//W3C//DTD SVG 1.1//EN" "http://www.w3.org/Graphics/SVG/1.1/DTD/svg11.dtd">
<svg version="1.1" id="Layer_1" xmlns="http://www.w3.org/2000/svg" xmlns:xlink="http://www.w3.org/1999/xlink" x="0px" y="0px"
	 width="595.28px" height="595.281px" viewBox="0 0 595.28 595.281" enable-background="new 0 0 595.28 595.281"
	 xml:space="preserve">
<title>footer-apple</title>
<g id="Layer_2">
	<g id="Capa_1">
		<path fill="#FFFFFF" d="M297.64,0C133.258,0,0,133.258,0,297.641c0,164.382,133.258,297.641,297.64,297.641
			s297.641-133.259,297.641-297.641C595.28,133.258,462.021,0,297.64,0z M339.905,365.651l-7.44,59.528
			c-1.435,12.144-11.732,21.29-23.96,21.281h-21.729c-12.177,0.018-22.455-9.049-23.958-21.134l-7.441-59.526
			c-3.041-23.31,13.39-44.67,36.698-47.711c1.846-0.24,3.704-0.36,5.565-0.357c-19.973,0-36.163-16.191-36.163-36.164
			c0-19.972,16.19-36.163,36.163-36.163s36.163,16.191,36.163,36.163c-0.081,19.938-16.225,36.082-36.163,36.164
			c23.507-0.021,42.581,19.015,42.604,42.521C340.245,362.057,340.132,363.861,339.905,365.651z M297.64,221.146
			c-37.726,0.02-68.293,30.618-68.272,68.344c0.007,13.074,3.766,25.871,10.829,36.873c-4.933,8.369-7.979,17.714-8.931,27.383
			c-35.592-36.697-34.693-95.302,2.005-130.894c36.697-35.593,95.301-34.694,130.893,2.004c34.823,35.906,34.823,92.982,0,128.89
			c-0.95-9.669-3.997-19.014-8.93-27.383c20.384-31.745,11.174-74.004-20.571-94.388
			C323.617,224.885,310.765,221.125,297.64,221.146z M357.168,416.696l3.721-29.764c53.907-35.301,68.991-107.619,33.69-161.527
			c-35.303-53.908-107.619-68.992-161.527-33.69c-53.907,35.302-68.99,107.619-33.689,161.527
			c8.793,13.429,20.263,24.897,33.689,33.69l5.062,29.764c-70.461-32.876-100.929-116.647-68.052-187.107
			c32.876-70.46,116.646-100.928,187.106-68.051c70.46,32.876,100.928,116.646,68.051,187.107
			C411.233,378.619,387.141,402.712,357.168,416.696z"/>
	</g>
</g>
</svg>
