<?xml version="1.0" encoding="utf-8"?>
<!-- Generator: Adobe Illustrator 16.0.0, SVG Export Plug-In . SVG Version: 6.00 Build 0)  -->
<!DOCTYPE svg PUBLIC "-//W3C//DTD SVG 1.1//EN" "http://www.w3.org/Graphics/SVG/1.1/DTD/svg11.dtd">
<svg version="1.1" id="Layer_1" xmlns="http://www.w3.org/2000/svg" xmlns:xlink="http://www.w3.org/1999/xlink" x="0px" y="0px"
	 width="367.75px" height="7px" viewBox="0 0 367.75 7" enable-background="new 0 0 367.75 7" xml:space="preserve">
<path fill="#FEFEFE" d="M7,3.5C7,5.433,5.433,7,3.5,7S0,5.433,0,3.5C0,1.567,1.567,0,3.5,0S7,1.567,7,3.5"/>
<path fill="#FEFEFE" d="M16.75,3.5c0,1.933-1.567,3.5-3.5,3.5s-3.5-1.567-3.5-3.5c0-1.933,1.567-3.5,3.5-3.5S16.75,1.567,16.75,3.5"
	/>
<path fill="#FEFEFE" d="M26.5,3.5C26.5,5.433,24.933,7,23,7s-3.5-1.567-3.5-3.5C19.5,1.567,21.067,0,23,0S26.5,1.567,26.5,3.5"/>
<path fill="#FEFEFE" d="M36.25,3.5c0,1.933-1.567,3.5-3.5,3.5s-3.5-1.567-3.5-3.5c0-1.933,1.567-3.5,3.5-3.5S36.25,1.567,36.25,3.5"
	/>
<path fill="#FEFEFE" d="M46,3.5C46,5.433,44.433,7,42.5,7S39,5.433,39,3.5C39,1.567,40.567,0,42.5,0S46,1.567,46,3.5"/>
<path fill="#FEFEFE" d="M55.75,3.5c0,1.933-1.567,3.5-3.5,3.5s-3.5-1.567-3.5-3.5c0-1.933,1.567-3.5,3.5-3.5S55.75,1.567,55.75,3.5"
	/>
<path fill="#FEFEFE" d="M65.5,3.5C65.5,5.433,63.933,7,62,7s-3.5-1.567-3.5-3.5C58.5,1.567,60.067,0,62,0S65.5,1.567,65.5,3.5"/>
<path fill="#FEFEFE" d="M75.25,3.5c0,1.933-1.567,3.5-3.5,3.5s-3.5-1.567-3.5-3.5c0-1.933,1.567-3.5,3.5-3.5S75.25,1.567,75.25,3.5"
	/>
<path fill="#FEFEFE" d="M85,3.5C85,5.433,83.433,7,81.5,7S78,5.433,78,3.5C78,1.567,79.567,0,81.5,0S85,1.567,85,3.5"/>
<path fill="#FEFEFE" d="M94.75,3.5c0,1.933-1.567,3.5-3.5,3.5s-3.5-1.567-3.5-3.5c0-1.933,1.567-3.5,3.5-3.5S94.75,1.567,94.75,3.5"
	/>
<path fill="#FEFEFE" d="M104.5,3.5c0,1.933-1.567,3.5-3.5,3.5s-3.5-1.567-3.5-3.5c0-1.933,1.567-3.5,3.5-3.5S104.5,1.567,104.5,3.5"
	/>
<path fill="#FEFEFE" d="M114.25,3.5c0,1.933-1.567,3.5-3.5,3.5s-3.5-1.567-3.5-3.5c0-1.933,1.567-3.5,3.5-3.5
	S114.25,1.567,114.25,3.5"/>
<path fill="#FEFEFE" d="M124,3.5c0,1.933-1.567,3.5-3.5,3.5S117,5.433,117,3.5c0-1.933,1.567-3.5,3.5-3.5S124,1.567,124,3.5"/>
<path fill="#FEFEFE" d="M133.75,3.5c0,1.933-1.567,3.5-3.5,3.5s-3.5-1.567-3.5-3.5c0-1.933,1.567-3.5,3.5-3.5
	S133.75,1.567,133.75,3.5"/>
<path fill="#FEFEFE" d="M143.5,3.5c0,1.933-1.567,3.5-3.5,3.5s-3.5-1.567-3.5-3.5c0-1.933,1.567-3.5,3.5-3.5S143.5,1.567,143.5,3.5"
	/>
<path fill="#FEFEFE" d="M153.25,3.5c0,1.933-1.567,3.5-3.5,3.5s-3.5-1.567-3.5-3.5c0-1.933,1.567-3.5,3.5-3.5
	S153.25,1.567,153.25,3.5"/>
<path fill="#FEFEFE" d="M163,3.5c0,1.933-1.567,3.5-3.5,3.5S156,5.433,156,3.5c0-1.933,1.567-3.5,3.5-3.5S163,1.567,163,3.5"/>
<path fill="#FEFEFE" d="M172.75,3.5c0,1.933-1.567,3.5-3.5,3.5s-3.5-1.567-3.5-3.5c0-1.933,1.567-3.5,3.5-3.5
	S172.75,1.567,172.75,3.5"/>
<path fill="#FEFEFE" d="M182.5,3.5c0,1.933-1.567,3.5-3.5,3.5s-3.5-1.567-3.5-3.5c0-1.933,1.567-3.5,3.5-3.5S182.5,1.567,182.5,3.5"
	/>
<path fill="#FEFEFE" d="M192.25,3.5c0,1.933-1.567,3.5-3.5,3.5s-3.5-1.567-3.5-3.5c0-1.933,1.567-3.5,3.5-3.5
	S192.25,1.567,192.25,3.5"/>
<path fill="#FEFEFE" d="M202,3.5c0,1.933-1.567,3.5-3.5,3.5S195,5.433,195,3.5c0-1.933,1.567-3.5,3.5-3.5S202,1.567,202,3.5"/>
<path fill="#FEFEFE" d="M211.75,3.5c0,1.933-1.567,3.5-3.5,3.5s-3.5-1.567-3.5-3.5c0-1.933,1.567-3.5,3.5-3.5
	S211.75,1.567,211.75,3.5"/>
<path fill="#FEFEFE" d="M221.5,3.5c0,1.933-1.567,3.5-3.5,3.5s-3.5-1.567-3.5-3.5c0-1.933,1.567-3.5,3.5-3.5S221.5,1.567,221.5,3.5"
	/>
<path fill="#FEFEFE" d="M231.25,3.5c0,1.933-1.567,3.5-3.5,3.5s-3.5-1.567-3.5-3.5c0-1.933,1.567-3.5,3.5-3.5
	S231.25,1.567,231.25,3.5"/>
<path fill="#FEFEFE" d="M241,3.5c0,1.933-1.567,3.5-3.5,3.5S234,5.433,234,3.5c0-1.933,1.567-3.5,3.5-3.5S241,1.567,241,3.5"/>
<path fill="#FEFEFE" d="M250.75,3.5c0,1.933-1.567,3.5-3.5,3.5s-3.5-1.567-3.5-3.5c0-1.933,1.567-3.5,3.5-3.5
	S250.75,1.567,250.75,3.5"/>
<path fill="#FEFEFE" d="M260.5,3.5c0,1.933-1.567,3.5-3.5,3.5s-3.5-1.567-3.5-3.5c0-1.933,1.567-3.5,3.5-3.5S260.5,1.567,260.5,3.5"
	/>
<path fill="#FEFEFE" d="M270.25,3.5c0,1.933-1.567,3.5-3.5,3.5s-3.5-1.567-3.5-3.5c0-1.933,1.567-3.5,3.5-3.5
	S270.25,1.567,270.25,3.5"/>
<path fill="#FEFEFE" d="M280,3.5c0,1.933-1.567,3.5-3.5,3.5S273,5.433,273,3.5c0-1.933,1.567-3.5,3.5-3.5S280,1.567,280,3.5"/>
<path fill="#FEFEFE" d="M289.75,3.5c0,1.933-1.567,3.5-3.5,3.5s-3.5-1.567-3.5-3.5c0-1.933,1.567-3.5,3.5-3.5
	S289.75,1.567,289.75,3.5"/>
<path fill="#FEFEFE" d="M299.5,3.5c0,1.933-1.567,3.5-3.5,3.5s-3.5-1.567-3.5-3.5c0-1.933,1.567-3.5,3.5-3.5S299.5,1.567,299.5,3.5"
	/>
<path fill="#FEFEFE" d="M309.25,3.5c0,1.933-1.567,3.5-3.5,3.5s-3.5-1.567-3.5-3.5c0-1.933,1.567-3.5,3.5-3.5
	S309.25,1.567,309.25,3.5"/>
<path fill="#FEFEFE" d="M319,3.5c0,1.933-1.567,3.5-3.5,3.5S312,5.433,312,3.5c0-1.933,1.567-3.5,3.5-3.5S319,1.567,319,3.5"/>
<path fill="#FEFEFE" d="M328.75,3.5c0,1.933-1.567,3.5-3.5,3.5s-3.5-1.567-3.5-3.5c0-1.933,1.567-3.5,3.5-3.5
	S328.75,1.567,328.75,3.5"/>
<path fill="#FEFEFE" d="M338.5,3.5c0,1.933-1.567,3.5-3.5,3.5s-3.5-1.567-3.5-3.5c0-1.933,1.567-3.5,3.5-3.5S338.5,1.567,338.5,3.5"
	/>
<path fill="#FEFEFE" d="M348.25,3.5c0,1.933-1.567,3.5-3.5,3.5s-3.5-1.567-3.5-3.5c0-1.933,1.567-3.5,3.5-3.5
	S348.25,1.567,348.25,3.5"/>
<path fill="#FEFEFE" d="M358,3.5c0,1.933-1.567,3.5-3.5,3.5S351,5.433,351,3.5c0-1.933,1.567-3.5,3.5-3.5S358,1.567,358,3.5"/>
<path fill="#FEFEFE" d="M367.75,3.5c0,1.933-1.567,3.5-3.5,3.5s-3.5-1.567-3.5-3.5c0-1.933,1.567-3.5,3.5-3.5
	S367.75,1.567,367.75,3.5"/>
<rect fill="#FEFEFE" width="367.75" height="7"/>
</svg>
