<?xml version="1.0" encoding="utf-8"?>
<!-- Generator: Adobe Illustrator 20.1.0, SVG Export Plug-In . SVG Version: 6.00 Build 0)  -->
<svg version="1.1" id="Layer_1" xmlns="http://www.w3.org/2000/svg" xmlns:xlink="http://www.w3.org/1999/xlink" x="0px" y="0px"
	 viewBox="0 0 598.6 595.3" style="enable-background:new 0 0 598.6 595.3;" xml:space="preserve">
<style type="text/css">
	.st0{fill:#FFFC00;}
</style>
<title>icon-ticket</title>
<g id="Layer_2">
	<g id="Layer_1-2">
		<path class="st0" d="M215.3,365.2l20.5-3.2c0.7-0.1,1.3-0.2,2-0.2c4.8,0,9.2,2.7,11.4,7l9.4,18.4l3.2-20.4
			c0.9-5.5,5.2-9.7,10.6-10.6l20.4-3.2l-18.5-9.4c-4.9-2.5-7.7-7.9-6.8-13.4l3.2-20.5l-14.6,14.6c-3.9,3.9-9.9,4.8-14.8,2.3
			l-18.5-9.4l9.4,18.5c2.5,4.9,1.6,10.9-2.3,14.8L215.3,365.2z"/>
		<path class="st0" d="M141.4,545.5l46,46c5,5,13,5,18,0l389.4-389.4c5-5,5-13.1,0-18l-46-46.1c-29.5,19.4-69,11.2-88.4-18.3
			c-14-21.3-14-48.8,0-70.1l-46-45.9c-5-5-13.1-5-18,0l-68.8,68.9L7,393.1c-5,5-5,13.1,0,18l46,46c29.3-19.5,68.8-11.5,88.3,17.8
			c11.9,17.9,14,40.7,5.4,60.5C145.3,539,143.5,542.3,141.4,545.5z M470.1,254.7l18,18l-18,18l-18-18L470.1,254.7z M452.1,236.7
			l-18,18l-18-18l18-18L452.1,236.7z M398,182.5l18,18l-18,18l-18.1-18.1L398,182.5z M361.9,146.4l18,18l-18,18l-18-18L361.9,146.4z
			 M325.8,110.4l18,18l-18,18l-18-18L325.8,110.4z M169.5,374.9l35.9-35.9l-23-45.2c-3.2-6.3-0.6-14,5.7-17.1
			c3.6-1.8,7.9-1.8,11.5,0l45.2,23l35.9-35.9c5-5,13-5.1,18.1-0.1c2.9,2.9,4.3,7.1,3.6,11.1l-8.1,50.1l45.2,23
			c6.3,3.2,8.7,10.9,5.5,17.2c-1.9,3.6-5.3,6.1-9.3,6.7l-50.1,8l-7.9,50.1c-0.9,5.5-5.1,9.7-10.6,10.6c-0.7,0.1-1.3,0.2-2,0.2
			c-4.8,0-9.2-2.7-11.3-7l-23-45.2l-50.1,8c-7,1.1-13.5-3.6-14.7-10.5C165.2,382,166.5,377.8,169.5,374.9L169.5,374.9z"/>
	</g>
</g>
</svg>
