<?xml version="1.0" encoding="utf-8"?>
<!-- Generator: Adobe Illustrator 16.0.0, SVG Export Plug-In . SVG Version: 6.00 Build 0)  -->
<!DOCTYPE svg PUBLIC "-//W3C//DTD SVG 1.1//EN" "http://www.w3.org/Graphics/SVG/1.1/DTD/svg11.dtd">
<svg version="1.1" id="Layer_1" xmlns="http://www.w3.org/2000/svg" xmlns:xlink="http://www.w3.org/1999/xlink" x="0px" y="0px"
	 width="598.555px" height="595.281px" viewBox="0 0 598.555 595.281" enable-background="new 0 0 598.555 595.281"
	 xml:space="preserve">
<title>icon-ticket</title>
<g id="Layer_2">
	<g id="Layer_1-2">
		<path fill="#52BBAB" d="M215.315,365.198l20.476-3.19c0.658-0.111,1.325-0.166,1.995-0.158c4.799-0.004,9.192,2.685,11.378,6.957
			l9.445,18.416l3.191-20.41c0.871-5.457,5.154-9.732,10.612-10.597l20.407-3.192l-18.463-9.397
			c-4.922-2.51-7.672-7.897-6.813-13.356l3.189-20.474l-14.602,14.603c-3.913,3.896-9.889,4.838-14.811,2.328l-18.479-9.397
			l9.415,18.464c2.504,4.924,1.558,10.898-2.346,14.811L215.315,365.198z"/>
		<path fill="#52BBAB" d="M141.413,545.54l46.007,45.99c4.98,4.972,13.049,4.972,18.032,0l389.372-389.374
			c4.974-4.983,4.974-13.05,0-18.033l-45.975-46.055c-29.464,19.356-69.041,11.164-88.397-18.3
			c-13.979-21.279-13.978-48.831,0.007-70.107L414.451,3.734c-4.982-4.981-13.063-4.981-18.048,0l-68.843,68.857L7.014,393.093
			c-4.979,4.984-4.979,13.063,0,18.05l46.007,46.007c29.295-19.47,68.825-11.502,88.294,17.793
			c11.93,17.947,13.972,40.712,5.429,60.496C145.283,538.965,143.499,542.344,141.413,545.54z M470.147,254.689l18.033,18.032
			l-18.033,18.032l-18.032-18.032L470.147,254.689z M452.115,236.657l-17.969,18.032l-18.049-18.032l17.953-18.033L452.115,236.657z
			 M398,182.527l18.031,18.049l-18.049,18.048l-18.096-18.063L398,182.527z M361.888,146.446l18.001,18.033l-18.049,18.032
			l-18.032-18.032L361.888,146.446z M325.807,110.382l18.033,18.032l-18.033,18.032l-18.032-18.032L325.807,110.382z M169.531,374.9
			l35.858-35.855l-22.964-45.193c-3.165-6.302-0.624-13.975,5.676-17.14c3.606-1.813,7.856-1.813,11.463,0l45.193,22.963
			l35.855-35.872c4.951-5.021,13.034-5.074,18.056-0.122c2.945,2.906,4.301,7.063,3.633,11.147l-8.123,50.143l45.191,23.043
			c6.263,3.243,8.706,10.947,5.463,17.209c-1.857,3.586-5.306,6.082-9.291,6.729l-50.107,7.979l-7.852,50.093
			c-0.87,5.451-5.146,9.727-10.598,10.597c-0.662,0.114-1.337,0.174-2.011,0.177c-4.791-0.013-9.173-2.705-11.347-6.975
			l-23.043-45.192l-50.076,7.979c-6.958,1.14-13.521-3.578-14.66-10.536c-0.668-4.086,0.688-8.242,3.633-11.148L169.531,374.9z"/>
	</g>
</g>
</svg>
