<?xml version="1.0" encoding="utf-8"?>
<!-- Generator: Adobe Illustrator 16.0.0, SVG Export Plug-In . SVG Version: 6.00 Build 0)  -->
<!DOCTYPE svg PUBLIC "-//W3C//DTD SVG 1.1//EN" "http://www.w3.org/Graphics/SVG/1.1/DTD/svg11.dtd">
<svg version="1.1" id="Layer_1" xmlns="http://www.w3.org/2000/svg" xmlns:xlink="http://www.w3.org/1999/xlink" x="0px" y="0px"
	 width="40px" height="40px" viewBox="0 0 40 40" enable-background="new 0 0 40 40" xml:space="preserve">
<g id="Layer_2_1_">
	<g id="Capa_1">
		<path fill="#FFFFFF" stroke="#FFFFFF" stroke-miterlimit="10" d="M28.196,39.23H12.178C6.048,39.22,1.083,34.254,1.072,28.124
			V12.106C1.083,5.976,6.048,1.01,12.178,1h16.018c6.129,0.01,11.097,4.976,11.106,11.106v16.018
			C39.292,34.253,34.325,39.22,28.196,39.23z M12.178,3.982c-4.487,0-8.124,3.636-8.124,8.124v16.018
			c0,4.487,3.637,8.125,8.124,8.125h16.018c4.487,0,8.125-3.638,8.125-8.125l0,0V12.106c0-4.488-3.638-8.124-8.125-8.124H12.178z"/>
		<path fill="#FFFFFF" stroke="#FFFFFF" stroke-miterlimit="10" d="M20.188,30.417c-5.69,0-10.303-4.611-10.303-10.302
			S14.497,9.812,20.188,9.812s10.302,4.613,10.302,10.303C30.479,25.801,25.873,30.407,20.188,30.417z M20.188,12.793
			c-4.043,0-7.321,3.278-7.321,7.322c0,4.044,3.277,7.321,7.321,7.321c4.044,0,7.321-3.277,7.321-7.321l0,0
			C27.509,16.072,24.231,12.793,20.188,12.793z"/>
		<circle fill="#FFFFFF" stroke="#FFFFFF" stroke-miterlimit="10" cx="30.644" cy="9.659" r="1.491"/>
	</g>
</g>
</svg>
