<?xml version="1.0" encoding="utf-8"?>
<!-- Generator: Adobe Illustrator 16.0.0, SVG Export Plug-In . SVG Version: 6.00 Build 0)  -->
<!DOCTYPE svg PUBLIC "-//W3C//DTD SVG 1.1//EN" "http://www.w3.org/Graphics/SVG/1.1/DTD/svg11.dtd">
<svg version="1.1" id="Layer_1" xmlns="http://www.w3.org/2000/svg" xmlns:xlink="http://www.w3.org/1999/xlink" x="0px" y="0px"
	 width="40px" height="40px" viewBox="0 0 40 40" enable-background="new 0 0 40 40" xml:space="preserve">
<g>
	<defs>
		<rect id="SVGID_1_" width="40" height="40"/>
	</defs>
	<clipPath id="SVGID_2_">
		<use xlink:href="#SVGID_1_"  overflow="visible"/>
	</clipPath>
	<path clip-path="url(#SVGID_2_)" fill="#52BBAB" d="M23.828,20c0,2.114-1.714,3.828-3.828,3.828c-2.114,0-3.828-1.714-3.828-3.828
		c0-2.114,1.714-3.828,3.828-3.828C22.114,16.172,23.828,17.886,23.828,20"/>
	<path clip-path="url(#SVGID_2_)" fill="#52BBAB" d="M28.952,13.227c-0.184-0.499-0.477-0.95-0.858-1.32
		c-0.37-0.382-0.821-0.675-1.32-0.859c-0.405-0.158-1.013-0.345-2.133-0.396c-1.211-0.055-1.574-0.067-4.641-0.067
		s-3.43,0.012-4.641,0.067c-1.12,0.051-1.728,0.238-2.132,0.396c-0.499,0.184-0.951,0.477-1.321,0.859
		c-0.381,0.37-0.675,0.821-0.859,1.32c-0.157,0.405-0.345,1.013-0.396,2.133c-0.055,1.211-0.067,1.574-0.067,4.64
		s0.012,3.43,0.067,4.641c0.051,1.12,0.239,1.729,0.396,2.133c0.184,0.499,0.477,0.95,0.859,1.32c0.37,0.381,0.821,0.675,1.32,0.859
		c0.405,0.157,1.013,0.345,2.133,0.396c1.211,0.055,1.574,0.066,4.64,0.066c3.067,0,3.43-0.012,4.641-0.066
		c1.12-0.051,1.728-0.238,2.133-0.396c1.001-0.387,1.793-1.179,2.179-2.18c0.157-0.404,0.345-1.013,0.396-2.133
		c0.055-1.211,0.066-1.574,0.066-4.641s-0.012-3.429-0.066-4.64C29.298,14.24,29.11,13.632,28.952,13.227 M20,25.896
		c-3.257,0-5.897-2.64-5.897-5.896c0-3.257,2.641-5.897,5.897-5.897s5.897,2.64,5.897,5.897C25.897,23.257,23.257,25.896,20,25.896
		 M26.131,15.248c-0.762,0-1.379-0.617-1.379-1.378c0-0.761,0.617-1.378,1.379-1.378c0.761,0,1.378,0.617,1.378,1.378
		C27.509,14.631,26.892,15.248,26.131,15.248"/>
	<path clip-path="url(#SVGID_2_)" fill="#52BBAB" d="M20,0C8.956,0,0,8.956,0,20c0,11.044,8.956,20,20,20s20-8.956,20-20
		C40,8.956,31.044,0,20,0 M31.415,24.734c-0.056,1.224-0.25,2.058-0.534,2.788c-0.596,1.542-1.815,2.763-3.358,3.359
		c-0.73,0.283-1.565,0.477-2.787,0.533c-1.226,0.056-1.616,0.069-4.735,0.069s-3.51-0.014-4.735-0.069
		c-1.222-0.057-2.057-0.25-2.787-0.533c-0.767-0.289-1.461-0.741-2.035-1.325c-0.584-0.574-1.036-1.268-1.324-2.034
		c-0.284-0.729-0.478-1.564-0.534-2.788C8.529,23.51,8.516,23.119,8.516,20s0.013-3.51,0.069-4.735
		c0.055-1.222,0.249-2.057,0.533-2.787c0.289-0.767,0.741-1.461,1.325-2.034c0.574-0.585,1.268-1.037,2.034-1.325
		c0.731-0.284,1.566-0.478,2.788-0.534C16.49,8.529,16.881,8.516,20,8.516s3.51,0.013,4.735,0.069
		c1.222,0.056,2.057,0.25,2.787,0.534c0.767,0.288,1.461,0.74,2.034,1.325c0.584,0.573,1.036,1.267,1.324,2.034
		c0.284,0.73,0.479,1.565,0.534,2.787c0.056,1.225,0.069,1.616,0.069,4.735S31.471,23.51,31.415,24.734"/>
</g>
</svg>
