<?xml version="1.0" encoding="utf-8"?>
<!-- Generator: Adobe Illustrator 16.0.0, SVG Export Plug-In . SVG Version: 6.00 Build 0)  -->
<!DOCTYPE svg PUBLIC "-//W3C//DTD SVG 1.1//EN" "http://www.w3.org/Graphics/SVG/1.1/DTD/svg11.dtd">
<svg version="1.1" id="Layer_1" xmlns="http://www.w3.org/2000/svg" xmlns:xlink="http://www.w3.org/1999/xlink" x="0px" y="0px"
	 width="841.889px" height="595.281px" viewBox="0 0 841.889 595.281" enable-background="new 0 0 841.889 595.281"
	 xml:space="preserve">
<title>menu-tiktok</title>
<g id="Layer_2">
	<g id="Layer_1-2">
		<path fill="#FCFCFC" d="M663.67,130.664c-62.397-0.163-112.939-50.706-113.104-113.103C550.567,7.862,542.704,0,533.006,0l0,0
			h-93.459c-9.698,0-17.561,7.862-17.561,17.562l0,0v382.765c0,36.822-29.85,66.672-66.672,66.672
			c-36.821,0-66.671-29.85-66.671-66.672c0-36.821,29.85-66.671,66.671-66.671l0,0c9.699,0,17.562-7.862,17.562-17.561l0,0v-93.162
			c0-9.698-7.862-17.561-17.562-17.561l0,0c-107.67,0-194.954,87.284-194.954,194.954c0,107.671,87.284,194.955,194.954,194.955
			c107.671,0,194.954-87.284,194.954-194.955l0,0V230.969c34.892,18.63,73.848,28.344,113.401,28.276
			c9.698,0,17.561-7.862,17.561-17.562l0,0V148.82c0-9.698-7.862-17.561-17.561-17.561l0,0V130.664z"/>
	</g>
</g>
</svg>
