<?xml version="1.0" encoding="utf-8"?>
<!-- Generator: Adobe Illustrator 16.0.0, SVG Export Plug-In . SVG Version: 6.00 Build 0)  -->
<!DOCTYPE svg PUBLIC "-//W3C//DTD SVG 1.1//EN" "http://www.w3.org/Graphics/SVG/1.1/DTD/svg11.dtd">
<svg version="1.1" id="Layer_1" xmlns="http://www.w3.org/2000/svg" xmlns:xlink="http://www.w3.org/1999/xlink" x="0px" y="0px"
	 width="841.889px" height="595.281px" viewBox="0 0 841.889 595.281" enable-background="new 0 0 841.889 595.281"
	 xml:space="preserve">
<title>menu-youtube</title>
<g id="Layer_2">
	<g id="Layer_1-2">
		<path fill="#FFFFFF" d="M19.317,503.385c10.011,36.151,38.258,64.398,74.41,74.409c86.315,23.439,570.725,23.439,658.528,0
			c36.113-10.076,64.333-38.296,74.41-74.409c24.173-138.473,24.173-280.085,0-418.557v6.696
			c-10.011-36.151-38.258-64.399-74.41-74.41C665.568-5.58,180.042-6.324,92.239,17.858c-36.113,10.077-64.333,38.297-74.41,74.41
			c-25.094,136.015-25.094,275.473,0,411.488L19.317,503.385z M337.791,425.626V170.027L558.417,297.64L337.791,425.626z"/>
	</g>
</g>
</svg>
