<?xml version="1.0" encoding="utf-8"?>
<!-- Generator: Adobe Illustrator 16.0.0, SVG Export Plug-In . SVG Version: 6.00 Build 0)  -->
<!DOCTYPE svg PUBLIC "-//W3C//DTD SVG 1.1//EN" "http://www.w3.org/Graphics/SVG/1.1/DTD/svg11.dtd">
<svg version="1.1" id="Layer_1" xmlns="http://www.w3.org/2000/svg" xmlns:xlink="http://www.w3.org/1999/xlink" x="0px" y="0px"
	 width="841.889px" height="595.281px" viewBox="0 0 841.889 595.281" enable-background="new 0 0 841.889 595.281"
	 xml:space="preserve">
<title>menu-spotify</title>
<g id="Layer_2">
	<g id="Layer_1-2">
		<path fill="#FFFFFF" d="M534.048,385.444c-99.114-45.837-238.112-25.597-243.47-24.704c-13.068,1.973-22.063,14.166-20.091,27.234
			s14.166,22.063,27.234,20.091l0,0c0,0,130.068-19.049,216.384,20.835c3.181,1.427,6.635,2.138,10.12,2.083
			c13.148,0.213,23.98-10.273,24.194-23.422c0.154-9.523-5.382-18.224-14.074-22.117H534.048z"/>
		<path fill="#FFFFFF" d="M561.729,299.426c-112.509-52.087-270.258-29.764-276.806-27.978
			c-13.068,1.973-22.063,14.166-20.091,27.234s14.166,22.063,27.234,20.091c1.488,0,150.308-21.729,249.72,24.108
			c3.177,1.437,6.634,2.148,10.12,2.084c13.148,0.213,23.98-10.273,24.194-23.423c0.154-9.523-5.382-18.223-14.075-22.116
			L561.729,299.426z"/>
		<path fill="#FFFFFF" d="M580.48,208.348c-124.414-56.254-298.83-29.765-306.271-29.765c-13.068,1.973-22.063,14.166-20.091,27.234
			s14.166,22.063,27.234,20.091l0,0c1.785,0,167.868-24.406,278.889,27.085c3.177,1.437,6.634,2.148,10.119,2.084
			c12.904,2.794,25.631-5.401,28.425-18.305C601.579,223.869,593.384,211.142,580.48,208.348z"/>
		<path fill="#FFFFFF" d="M420.945,0c-164.382,0-297.64,133.258-297.64,297.641c0,164.382,133.258,297.641,297.64,297.641
			s297.64-133.259,297.64-297.641C718.584,133.258,585.326,0,420.945,0z M420.945,547.36
			c-137.916-0.164-249.587-112.101-249.422-250.018C171.687,159.427,283.623,47.756,421.54,47.921
			c137.8,0.164,249.422,111.919,249.422,249.72C670.798,435.605,558.909,547.36,420.945,547.36z"/>
	</g>
</g>
</svg>
