<?xml version="1.0" encoding="utf-8"?>
<!-- Generator: Adobe Illustrator 16.0.0, SVG Export Plug-In . SVG Version: 6.00 Build 0)  -->
<!DOCTYPE svg PUBLIC "-//W3C//DTD SVG 1.1//EN" "http://www.w3.org/Graphics/SVG/1.1/DTD/svg11.dtd">
<svg version="1.1" id="Layer_1" xmlns="http://www.w3.org/2000/svg" xmlns:xlink="http://www.w3.org/1999/xlink" x="0px" y="0px"
	 width="841.889px" height="595.281px" viewBox="0 0 841.889 595.281" enable-background="new 0 0 841.889 595.281"
	 xml:space="preserve">
<title>menu-instagram</title>
<g id="Layer_2">
	<g id="Capa_1">
		<path fill="#FFFFFF" d="M545.656,595.281H296.234c-95.438-0.164-172.765-77.491-172.929-172.93V172.928
			C123.469,77.491,200.795,0.164,296.234,0h249.422c95.438,0.164,172.766,77.491,172.929,172.929v249.423
			C718.421,517.79,641.094,595.117,545.656,595.281z M296.234,46.432c-69.862,0-126.497,56.634-126.497,126.496v249.423
			c0,69.862,56.635,126.497,126.497,126.497h249.422c69.862,0,126.497-56.635,126.497-126.497l0,0V172.928
			c0-69.862-56.635-126.496-126.497-126.496H296.234z"/>
		<path fill="#FFFFFF" d="M420.945,458.068c-88.602,0-160.428-71.826-160.428-160.428c0-88.603,71.826-160.429,160.428-160.429
			s160.428,71.826,160.428,160.429C581.209,386.175,509.479,457.905,420.945,458.068z M420.945,183.644
			c-62.958,0-113.996,51.037-113.996,113.996c0,62.958,51.038,113.996,113.996,113.996s113.996-51.038,113.996-113.996l0,0
			C534.941,234.681,483.903,183.644,420.945,183.644z"/>
		<circle fill="#FFFFFF" cx="583.754" cy="134.831" r="23.216"/>
	</g>
</g>
</svg>
