<?xml version="1.0" encoding="utf-8"?>
<!-- Generator: Adobe Illustrator 16.0.0, SVG Export Plug-In . SVG Version: 6.00 Build 0)  -->
<!DOCTYPE svg PUBLIC "-//W3C//DTD SVG 1.1//EN" "http://www.w3.org/Graphics/SVG/1.1/DTD/svg11.dtd">
<svg version="1.1" id="Layer_1" xmlns="http://www.w3.org/2000/svg" xmlns:xlink="http://www.w3.org/1999/xlink" x="0px" y="0px"
	 width="12.019px" height="15px" viewBox="0 0 12.019 15" enable-background="new 0 0 12.019 15" xml:space="preserve">
<g>
	<defs>
		<rect id="SVGID_1_" width="12.018" height="15"/>
	</defs>
	<clipPath id="SVGID_2_">
		<use xlink:href="#SVGID_1_"  overflow="visible"/>
	</clipPath>
	<path clip-path="url(#SVGID_2_)" d="M6.009,8.794c-1.536,0-2.785-1.249-2.785-2.785c0-1.535,1.249-2.785,2.785-2.785
		c1.536,0,2.785,1.25,2.785,2.785C8.794,7.545,7.545,8.794,6.009,8.794 M6.009,4.397c-0.889,0-1.612,0.723-1.612,1.612
		c0,0.889,0.723,1.612,1.612,1.612c0.89,0,1.612-0.723,1.612-1.612C7.621,5.12,6.898,4.397,6.009,4.397"/>
	<path clip-path="url(#SVGID_2_)" d="M6.009,14.999l-0.368-0.297c-0.057-0.046-1.412-1.146-2.786-2.723C0.961,9.804,0,7.852,0,6.175
		V6.009C0,2.695,2.695,0,6.009,0s6.01,2.696,6.01,6.01v0.166c0,1.676-0.961,3.628-2.855,5.804c-1.374,1.577-2.729,2.677-2.786,2.723
		L6.009,14.999z M6.009,1.172c-2.667,0-4.836,2.17-4.836,4.837v0.166c0,2.833,3.649,6.26,4.836,7.301
		c1.188-1.041,4.838-4.469,4.838-7.301V6.009C10.847,3.342,8.676,1.172,6.009,1.172"/>
</g>
</svg>
