<?xml version="1.0" encoding="utf-8"?>
<!-- Generator: Adobe Illustrator 16.0.0, SVG Export Plug-In . SVG Version: 6.00 Build 0)  -->
<!DOCTYPE svg PUBLIC "-//W3C//DTD SVG 1.1//EN" "http://www.w3.org/Graphics/SVG/1.1/DTD/svg11.dtd">
<svg version="1.1" id="Layer_1" xmlns="http://www.w3.org/2000/svg" xmlns:xlink="http://www.w3.org/1999/xlink" x="0px" y="0px"
	 width="841.889px" height="595.281px" viewBox="0 0 841.889 595.281" enable-background="new 0 0 841.889 595.281"
	 xml:space="preserve">
<title>search</title>
<g id="Layer_2">
	<g id="Layer_1-2">
		<path fill="#FFFFFF" d="M368.645,490.342c-135.356-0.095-245.009-109.899-244.915-245.256
			C123.823,109.728,233.628,0.076,368.986,0.171c135.224,0.094,244.821,109.69,244.915,244.915
			C613.807,380.498,504.057,490.247,368.645,490.342z M368.645,46.602c-109.713,0-198.653,88.94-198.653,198.653
			c0,109.714,88.94,198.653,198.654,198.653c109.713,0,198.653-88.94,198.653-198.653c0-0.057-0.001-0.113-0.001-0.17
			c-0.094-109.675-88.979-198.56-198.653-198.653V46.602z M711.527,588.477c9.015-9.085,9.015-23.74,0-32.825L607.608,451.733
			c-9.863-8.267-24.56-6.972-32.826,2.891c-7.256,8.659-7.256,21.276,0,29.935l103.92,103.919
			C687.785,597.492,702.442,597.492,711.527,588.477z"/>
	</g>
</g>
</svg>
