<?xml version="1.0" encoding="utf-8"?>
<!-- Generator: Adobe Illustrator 16.0.0, SVG Export Plug-In . SVG Version: 6.00 Build 0)  -->
<!DOCTYPE svg PUBLIC "-//W3C//DTD SVG 1.1//EN" "http://www.w3.org/Graphics/SVG/1.1/DTD/svg11.dtd">
<svg version="1.1" id="Layer_1" xmlns="http://www.w3.org/2000/svg" xmlns:xlink="http://www.w3.org/1999/xlink" x="0px" y="0px"
	 width="40px" height="40px" viewBox="0 0 40 40" enable-background="new 0 0 40 40" xml:space="preserve">
<g>
	<defs>
		<rect id="SVGID_1_" width="40" height="40"/>
	</defs>
	<clipPath id="SVGID_2_">
		<use xlink:href="#SVGID_1_"  overflow="visible"/>
	</clipPath>
	<path clip-path="url(#SVGID_2_)" fill="#D41F39" d="M20,0C8.954,0,0,8.954,0,20s8.954,20,20,20c11.045,0,20-8.954,20-20
		S31.045,0,20,0 M27.518,11.586c0.308,0,0.559,0.25,0.559,0.559v3.361l-4.312-3.92H27.518z M29.934,19.566
		c-0.146,0.378-0.503,0.622-0.909,0.622h-1.361v7.783c0,0.31-0.251,0.56-0.559,0.56h-4.672c-0.31,0-0.56-0.25-0.56-0.56v-4.725
		h-2.746v4.725c0,0.31-0.251,0.56-0.559,0.56h-4.673c-0.308,0-0.558-0.25-0.558-0.56v-7.783h-1.362
		c-0.405,0-0.762-0.244-0.909-0.622c-0.146-0.378-0.047-0.799,0.253-1.072l8.525-7.768c0.375-0.341,0.938-0.341,1.312,0l8.525,7.768
		C29.98,18.767,30.079,19.188,29.934,19.566"/>
</g>
</svg>
