<?xml version="1.0" encoding="utf-8"?>
<!-- Generator: Adobe Illustrator 16.0.0, SVG Export Plug-In . SVG Version: 6.00 Build 0)  -->
<!DOCTYPE svg PUBLIC "-//W3C//DTD SVG 1.1//EN" "http://www.w3.org/Graphics/SVG/1.1/DTD/svg11.dtd">
<svg version="1.1" id="Layer_1" xmlns="http://www.w3.org/2000/svg" xmlns:xlink="http://www.w3.org/1999/xlink" x="0px" y="0px"
	 width="40px" height="40px" viewBox="0 0 40 40" enable-background="new 0 0 40 40" xml:space="preserve">
<g>
	<g>
		<path fill="#FFFFFF" d="M34.78,3.286c0.648,0,1.176,0.525,1.176,1.176v7.067l-9.065-8.243H34.78z M39.86,20.065
			c-0.306,0.794-1.056,1.308-1.91,1.308h-2.862v16.365c0,0.653-0.527,1.18-1.174,1.18H24.09c-0.653,0-1.179-0.526-1.179-1.18v-9.934
			h-5.774v9.934c0,0.653-0.528,1.18-1.175,1.18H6.135c-0.648,0-1.173-0.526-1.173-1.18V21.373H2.098
			c-0.852,0-1.603-0.514-1.911-1.308c-0.307-0.794-0.099-1.68,0.531-2.253L18.645,1.478c0.788-0.716,1.972-0.716,2.759,0
			l17.927,16.334C39.959,18.386,40.167,19.271,39.86,20.065"/>
	</g>
</g>
</svg>
