<?xml version="1.0" encoding="utf-8"?>
<!-- Generator: Adobe Illustrator 16.0.0, SVG Export Plug-In . SVG Version: 6.00 Build 0)  -->
<!DOCTYPE svg PUBLIC "-//W3C//DTD SVG 1.1//EN" "http://www.w3.org/Graphics/SVG/1.1/DTD/svg11.dtd">
<svg version="1.1" id="Layer_1" xmlns="http://www.w3.org/2000/svg" xmlns:xlink="http://www.w3.org/1999/xlink" x="0px" y="0px"
	 width="19.982px" height="20px" viewBox="0 0 19.982 20" enable-background="new 0 0 19.982 20" xml:space="preserve">
<path fill="#FFFFFF" d="M7.888,14.517c-0.228,0.229-0.228,0.601,0,0.829c0.229,0.229,0.6,0.229,0.829,0
	c0.228-0.229,0.228-0.6,0-0.829C8.489,14.29,8.12,14.286,7.888,14.517"/>
<path fill="#FFFFFF" d="M7.888,9.545L7.888,9.545c0.229-0.228,0.231-0.597,0.001-0.829c-0.228-0.227-0.597-0.23-0.829,0
	c-0.23,0.232-0.228,0.601,0,0.828C7.282,9.767,7.667,9.766,7.888,9.545"/>
<path fill="#FFFFFF" d="M18.511,6.126c0.665-1.335,0.417-2.97-0.664-4.05c-1.081-1.082-2.716-1.329-4.05-0.664l-0.897-0.899
	c-0.687-0.684-1.803-0.685-2.486,0.001l-0.378,0.378l1.183,1.184c0.229,0.229,0.229,0.6,0,0.828c-0.228,0.229-0.599,0.229-0.828,0
	L9.206,1.721L7.593,3.378l9.056,9.055l1.612-1.656l-1.242-1.243c-0.229-0.228-0.229-0.6,0-0.828c0.229-0.229,0.6-0.229,0.828,0
	l1.243,1.242l0.379-0.379c0.686-0.685,0.686-1.8,0-2.485L18.511,6.126z M13.704,5.39c-0.229,0.229-0.599,0.229-0.828,0l-0.829-0.829
	c-0.229-0.228-0.229-0.599,0-0.828c0.229-0.229,0.601-0.229,0.828,0l0.829,0.828C13.933,4.79,13.933,5.161,13.704,5.39 M16.19,7.876
	c-0.229,0.229-0.601,0.229-0.829,0l-0.828-0.829c-0.229-0.229-0.229-0.6,0-0.829c0.229-0.228,0.6-0.228,0.828,0l0.829,0.829
	C16.419,7.276,16.419,7.648,16.19,7.876"/>
<path fill="#FFFFFF" d="M0.514,10.457c-0.686,0.686-0.686,1.8,0,2.486l0.924,0.924c-0.6,1.313-0.333,2.91,0.709,3.952
	c1.046,1.046,2.649,1.312,3.965,0.703l1.013,0.983c0.685,0.665,1.793,0.657,2.467-0.018l6.227-6.228L6.764,4.207L0.514,10.457z
	 M9.545,16.174c-0.684,0.687-1.799,0.686-2.485,0.001c-0.685-0.686-0.685-1.801,0-2.486c0.665-0.664,1.823-0.663,2.485,0
	C10.23,14.374,10.23,15.489,9.545,16.174 M12.199,11.552c0.036,0.322-0.196,0.611-0.518,0.647l-7.457,0.829
	c-0.329,0.034-0.612-0.201-0.647-0.519c-0.035-0.321,0.196-0.61,0.518-0.646l7.458-0.829C11.883,11.006,12.164,11.231,12.199,11.552
	 M8.717,7.888c0.686,0.687,0.687,1.799,0,2.486H8.716c-0.685,0.686-1.797,0.688-2.485,0c-0.686-0.685-0.688-1.798,0-2.486
	C6.896,7.224,8.054,7.225,8.717,7.888"/>
</svg>
